<svg width="36" height="140" viewBox="0 0 36 140" fill="none" xmlns="http://www.w3.org/2000/svg">
<g clip-path="url(#clip0_0_587)">
<path d="M18 0C13.2272 0 8.64563 1.89759 5.27344 5.27203C1.89777 8.64781 0.000935072 13.226 0 18C0 22.772 1.89844 27.3535 5.27344 30.728C8.64563 34.1024 13.2272 36 18 36C22.7728 36 27.3544 34.1024 30.7266 30.728C34.1016 27.3535 36 22.772 36 18C36 13.228 34.1016 8.64647 30.7266 5.27203C27.3544 1.89759 22.7728 0 18 0Z" fill="url(#paint0_linear_0_587)"/>
<path d="M8.14825 17.8098C13.3964 15.5238 16.8951 14.0166 18.6445 13.2884C23.6451 11.2092 24.6829 10.848 25.3608 10.8358C25.5098 10.8334 25.8417 10.8703 26.0583 11.0453C26.2383 11.193 26.2889 11.3927 26.3142 11.5329C26.3367 11.6729 26.3676 11.9922 26.3423 12.2413C26.0723 15.0876 24.8995 21.9945 24.3033 25.1825C24.0529 26.5314 23.5551 26.9836 23.0742 27.0278C22.0279 27.124 21.2348 26.337 20.2223 25.6736C18.6389 24.6349 17.7445 23.9886 16.2061 22.9753C14.4286 21.8041 15.5817 21.1603 16.5942 20.1085C16.8586 19.8331 21.4654 15.6439 21.5526 15.2639C21.5639 15.2164 21.5751 15.0392 21.4683 14.9458C21.3642 14.8522 21.2095 14.8843 21.097 14.9096C20.9367 14.9456 18.4083 16.6184 13.5033 19.9279C12.7861 20.4212 12.1364 20.6617 11.5514 20.649C10.9101 20.6353 9.67263 20.2857 8.75294 19.987C7.62794 19.6205 6.73075 19.4267 6.8095 18.8043C6.84888 18.4803 7.29607 18.1487 8.14825 17.8098Z" fill="white"/>
</g>
<path d="M22.6095 55H13.4055C4.9995 55 3 56.9995 3 65.3905V74.5945C3 82.999 4.9845 85 13.3905 85H22.5945C30.999 85 33 83.0155 33 74.6095V65.4055C33 56.9995 31.0155 55 22.6095 55ZM27.219 76.405H25.0305C24.2025 76.405 23.9535 75.7345 22.4685 74.2495C21.1725 73 20.625 72.844 20.2965 72.844C19.8435 72.844 19.719 72.9685 19.719 73.594V75.562C19.719 76.0945 19.5465 76.4065 18.156 76.4065C16.8065 76.3158 15.4979 75.9058 14.3379 75.2103C13.1779 74.5148 12.1998 73.5536 11.484 72.406C9.78475 70.291 8.60241 67.8087 8.031 65.1565C8.031 64.828 8.1555 64.531 8.781 64.531H10.968C11.5305 64.531 11.733 64.7815 11.9535 65.359C13.0155 68.485 14.8275 71.203 15.5625 71.203C15.8445 71.203 15.9675 71.0785 15.9675 70.375V67.156C15.8745 65.6875 15.0945 65.563 15.0945 65.032C15.1045 64.8919 15.1687 64.7613 15.2734 64.6678C15.3782 64.5742 15.5152 64.5252 15.6555 64.531H19.0935C19.563 64.531 19.719 64.765 19.719 65.3275V69.6715C19.719 70.141 19.9215 70.297 20.0625 70.297C20.3445 70.297 20.562 70.141 21.078 69.625C22.1863 68.2734 23.0918 66.7676 23.766 65.155C23.8349 64.9613 23.9653 64.7955 24.1373 64.6828C24.3093 64.5701 24.5134 64.5168 24.7185 64.531H26.907C27.5625 64.531 27.702 64.8595 27.5625 65.3275C26.7667 67.1101 25.7821 68.8023 24.6255 70.375C24.39 70.735 24.2955 70.9225 24.6255 71.344C24.843 71.6725 25.6095 72.313 26.1255 72.922C26.8754 73.67 27.498 74.5353 27.969 75.484C28.1565 76.093 27.843 76.405 27.219 76.405Z" fill="#2AABEE"/>
<path d="M33 113C33 111.35 31.65 110 30 110H6C4.35 110 3 111.35 3 113V131C3 132.65 4.35 134 6 134H30C31.65 134 33 132.65 33 131V113ZM30 113L18 120.5L6 113H30ZM30 131H6V116L18 123.5L30 116V131Z" fill="#2AABEE"/>
<defs>
<linearGradient id="paint0_linear_0_587" x1="1800" y1="0" x2="1800" y2="3600" gradientUnits="userSpaceOnUse">
<stop stop-color="#2AABEE"/>
<stop offset="1" stop-color="#229ED9"/>
</linearGradient>
<clipPath id="clip0_0_587">
<rect width="36" height="36" fill="white"/>
</clipPath>
</defs>
</svg>
