<svg width="28" height="28" viewBox="0 0 28 28" fill="none" xmlns="http://www.w3.org/2000/svg">
<path d="M2.3335 21V24.5C2.3335 25.2 2.80016 25.6666 3.50016 25.6666H8.16683V22.1666H11.6668V18.6666H14.0002L15.6335 17.0333C17.255 17.5982 19.0201 17.596 20.6402 17.0272C22.2603 16.4584 23.6394 15.3566 24.5519 13.9021C25.4644 12.4476 25.8563 10.7265 25.6635 9.02034C25.4706 7.31417 24.7045 5.72394 23.4903 4.50982C22.2762 3.29569 20.686 2.52953 18.9798 2.33669C17.2736 2.14384 15.5525 2.53573 14.098 3.44823C12.6435 4.36073 11.5418 5.73983 10.973 7.35992C10.4042 8.98001 10.402 10.7452 10.9668 12.3667L2.3335 21Z" stroke="white" stroke-width="2" stroke-linecap="round" stroke-linejoin="round"/>
<path d="M19.2503 9.33329C19.5725 9.33329 19.8337 9.07213 19.8337 8.74996C19.8337 8.42779 19.5725 8.16663 19.2503 8.16663C18.9282 8.16663 18.667 8.42779 18.667 8.74996C18.667 9.07213 18.9282 9.33329 19.2503 9.33329Z" stroke="white" stroke-width="3" stroke-linecap="round" stroke-linejoin="round"/>
</svg>
