<svg width="24" height="24" viewBox="0 0 24 24" fill="none" xmlns="http://www.w3.org/2000/svg">
<path d="M10.486 15.4225C10.3403 15.5734 10.2596 15.7755 10.2615 15.9852C10.2633 16.195 10.3474 16.3956 10.4958 16.544C10.6441 16.6923 10.8447 16.7764 11.0545 16.7782C11.2642 16.7801 11.4663 16.6994 11.6172 16.5537L15.8844 12.2705C15.9217 12.2333 15.9512 12.1892 15.9714 12.1406C15.9915 12.092 16.0019 12.0399 16.0019 11.9873C16.0019 11.9347 15.9915 11.8826 15.9714 11.834C15.9512 11.7854 15.9217 11.7413 15.8844 11.7041L11.6172 7.4225C11.4663 7.27677 11.2642 7.19614 11.0545 7.19796C10.8447 7.19978 10.6441 7.28392 10.4958 7.43224C10.3474 7.58057 10.2633 7.78122 10.2615 7.99098C10.2596 8.20073 10.3403 8.40282 10.486 8.5537L13.1196 11.2001H2.39961C2.18744 11.2001 1.98395 11.2844 1.83392 11.4344C1.68389 11.5844 1.59961 11.7879 1.59961 12.0001C1.59961 12.2123 1.68389 12.4158 1.83392 12.5658C1.98395 12.7158 2.18744 12.8001 2.39961 12.8001H13.1196L10.486 15.4225ZM19.1996 1.6001H8.79961C8.58744 1.6001 8.38395 1.68438 8.23392 1.83441C8.0839 1.98444 7.99961 2.18792 7.99961 2.4001C7.99961 2.61227 8.0839 2.81575 8.23392 2.96578C8.38395 3.11581 8.58744 3.2001 8.79961 3.2001H18.3996C18.6118 3.2001 18.8153 3.28438 18.9653 3.43441C19.1153 3.58444 19.1996 3.78792 19.1996 4.0001V20.0001C19.1996 20.2123 19.1153 20.4158 18.9653 20.5658C18.8153 20.7158 18.6118 20.8001 18.3996 20.8001H8.39961C8.18744 20.8001 7.98395 20.8844 7.83392 21.0344C7.6839 21.1844 7.59961 21.3879 7.59961 21.6001C7.59961 21.8123 7.6839 22.0158 7.83392 22.1658C7.98395 22.3158 8.18744 22.4001 8.39961 22.4001H19.1996C19.624 22.4001 20.0309 22.2315 20.331 21.9315C20.631 21.6314 20.7996 21.2244 20.7996 20.8001V3.2001C20.7996 2.77575 20.631 2.36879 20.331 2.06873C20.0309 1.76867 19.624 1.6001 19.1996 1.6001Z" fill="#34486C"/>
</svg>
