<svg width="28" height="28" viewBox="0 0 28 28" fill="none" xmlns="http://www.w3.org/2000/svg">
<g clip-path="url(#clip0_0_572)">
<path d="M19.5995 0.933333L20.1166 0.1568L19.8814 0H19.5995V0.933333ZM25.1995 4.66667H26.1329V4.1664L25.7166 3.89013L25.1995 4.66667ZM23.3329 22.4H8.39954V24.2667H23.3329V22.4ZM7.46621 21.4667V2.8H5.59954V21.4667H7.46621ZM8.39954 1.86667H19.5995V0H8.39954V1.86667ZM24.2662 4.66667V21.4667H26.1329V4.66667H24.2662ZM19.0825 1.70987L24.6825 5.4432L25.7166 3.89013L20.1166 0.1568L19.0825 1.70987ZM8.39954 22.4C8.15201 22.4 7.91461 22.3017 7.73958 22.1266C7.56454 21.9516 7.46621 21.7142 7.46621 21.4667H5.59954C5.59954 22.2093 5.89454 22.9215 6.41965 23.4466C6.94475 23.9717 7.65694 24.2667 8.39954 24.2667V22.4ZM23.3329 24.2667C24.0755 24.2667 24.7877 23.9717 25.3128 23.4466C25.8379 22.9215 26.1329 22.2093 26.1329 21.4667H24.2662C24.2662 21.7142 24.1679 21.9516 23.9928 22.1266C23.8178 22.3017 23.5804 22.4 23.3329 22.4V24.2667ZM7.46621 2.8C7.46621 2.55246 7.56454 2.31507 7.73958 2.14003C7.91461 1.965 8.15201 1.86667 8.39954 1.86667V0C7.65694 0 6.94475 0.294999 6.41965 0.820101C5.89454 1.3452 5.59954 2.05739 5.59954 2.8H7.46621ZM1.86621 6.53333V25.2H3.73288V6.53333H1.86621ZM4.66621 28H19.5995V26.1333H4.66621V28ZM4.66621 5.6H6.53288V3.73333H4.66621V5.6ZM22.3995 25.2V23.3333H20.5329V25.2H22.3995ZM19.5995 28C20.3422 28 21.0543 27.705 21.5794 27.1799C22.1045 26.6548 22.3995 25.9426 22.3995 25.2H20.5329C20.5329 25.4475 20.4345 25.6849 20.2595 25.86C20.0845 26.035 19.8471 26.1333 19.5995 26.1333V28ZM1.86621 25.2C1.86621 25.9426 2.16121 26.6548 2.68631 27.1799C3.21141 27.705 3.9236 28 4.66621 28V26.1333C4.41868 26.1333 4.18128 26.035 4.00624 25.86C3.83121 25.6849 3.73288 25.4475 3.73288 25.2H1.86621ZM3.73288 6.53333C3.73288 6.2858 3.83121 6.0484 4.00624 5.87337C4.18128 5.69833 4.41868 5.6 4.66621 5.6V3.73333C3.9236 3.73333 3.21141 4.02833 2.68631 4.55343C2.16121 5.07854 1.86621 5.79073 1.86621 6.53333H3.73288Z" fill="#34486C"/>
</g>
<defs>
<clipPath id="clip0_0_572">
<rect width="28" height="28" fill="white"/>
</clipPath>
</defs>
</svg>
